<svg width="26" height="26" viewBox="0 0 26 26" fill="none" xmlns="http://www.w3.org/2000/svg">
<path d="M24 1.29289L24.3536 0.93934L24 0.585787L23.6464 0.93934L24 1.29289ZM23.6464 1.64645L23.2929 1.29289L23.2929 1.29289L23.6464 1.64645ZM24.7071 2L25.0607 2.35355L25.4142 2L25.0607 1.64645L24.7071 2ZM24.3536 2.35355L24 2L24 2L24.3536 2.35355ZM13.7071 13L13.3536 12.6464L13 13L13.3536 13.3536L13.7071 13ZM24.7071 24L25.0607 24.3536L25.4142 24L25.0607 23.6464L24.7071 24ZM24 24.7071L23.6464 25.0607L24 25.4142L24.3536 25.0607L24 24.7071ZM13 13.7071L13.3536 13.3536L13 13L12.6464 13.3536L13 13.7071ZM2 24.7071L1.64645 25.0607L2 25.4142L2.35355 25.0607L2 24.7071ZM1.29289 24L0.939339 23.6464L0.585786 24L0.939339 24.3536L1.29289 24ZM12.2929 13L12.6464 13.3536L13 13L12.6464 12.6464L12.2929 13ZM1.64645 2.35355L2 2L2 2L1.64645 2.35355ZM1.29289 2L0.93934 1.64645L0.585786 2L0.93934 2.35355L1.29289 2ZM2 1.29289L2.35355 0.93934L2 0.585786L1.64645 0.93934L2 1.29289ZM2.35355 1.64645L2 2L2 2L2.35355 1.64645ZM13 12.2929L12.6464 12.6464L13 13L13.3536 12.6464L13 12.2929ZM23.6464 0.93934L23.2929 1.29289L24 2L24.3536 1.64645L23.6464 0.93934ZM25.0607 1.64645L24.3536 0.93934L23.6464 1.64645L24.3536 2.35355L25.0607 1.64645ZM24.7071 2.70711L25.0607 2.35355L24.3536 1.64645L24 2L24.7071 2.70711ZM14.0607 13.3536L24.7071 2.70711L24 2L13.3536 12.6464L14.0607 13.3536ZM13.3536 13.3536L24 24L24.7071 23.2929L14.0607 12.6464L13.3536 13.3536ZM24 24L24.3536 24.3536L25.0607 23.6464L24.7071 23.2929L24 24ZM24.3536 23.6464L23.6464 24.3536L24.3536 25.0607L25.0607 24.3536L24.3536 23.6464ZM24.3536 24.3536L24 24L23.2929 24.7071L23.6464 25.0607L24.3536 24.3536ZM24 24L13.3536 13.3536L12.6464 14.0607L23.2929 24.7071L24 24ZM2.70711 24.7071L13.3536 14.0607L12.6464 13.3536L2 24L2.70711 24.7071ZM2.35355 25.0607L2.70711 24.7071L2 24L1.64645 24.3536L2.35355 25.0607ZM0.939339 24.3536L1.64645 25.0607L2.35355 24.3536L1.64645 23.6464L0.939339 24.3536ZM1.29289 23.2929L0.939339 23.6464L1.64645 24.3536L2 24L1.29289 23.2929ZM11.9393 12.6464L1.29289 23.2929L2 24L12.6464 13.3536L11.9393 12.6464ZM12.6464 12.6464L2 2L1.29289 2.70711L11.9393 13.3536L12.6464 12.6464ZM2 2L1.64645 1.64645L0.93934 2.35355L1.29289 2.70711L2 2ZM1.64645 2.35355L2.35355 1.64645L1.64645 0.93934L0.93934 1.64645L1.64645 2.35355ZM1.64645 1.64645L2 2L2.70711 1.29289L2.35355 0.93934L1.64645 1.64645ZM2 2L12.6464 12.6464L13.3536 11.9393L2.70711 1.29289L2 2ZM23.2929 1.29289L12.6464 11.9393L13.3536 12.6464L24 2L23.2929 1.29289Z" fill="#D1D1D1"/>
</svg>
