<svg width="84" height="112" viewBox="0 0 84 112" fill="none" xmlns="http://www.w3.org/2000/svg">
<ellipse cx="42" cy="41.7407" rx="8.2" ry="8.14815" stroke="black" stroke-width="2" stroke-linecap="round" stroke-linejoin="round"/>
<path d="M17.4 53.5556C9.61 59.6667 3.46 68.2222 1 78.4074H10.43C16.58 78.4074 21.09 72.7037 19.45 67C17.81 61.2963 16.99 55.5926 16.99 49.4815C17.4 27.0741 27.65 7.92593 42 1C56.35 7.92593 66.6 27.0741 66.6 49.0741C66.6 55.1852 65.78 61.2963 64.14 66.5926C62.5 72.2963 67.01 78 73.16 78H83C80.54 67.8148 74.39 58.8519 66.6 53.1481" stroke="black" stroke-width="2" stroke-linecap="round" stroke-linejoin="round"/>
<path d="M42 78.4074V111" stroke="black" stroke-width="2" stroke-linecap="round" stroke-linejoin="round"/>
<path d="M29.7 86.5555V102.852" stroke="black" stroke-width="2" stroke-linecap="round" stroke-linejoin="round"/>
<path d="M54.3 86.5555V102.852" stroke="black" stroke-width="2" stroke-linecap="round" stroke-linejoin="round"/>
</svg>
