<svg width="68" height="88" viewBox="0 0 68 88" fill="none" xmlns="http://www.w3.org/2000/svg">
<path fill-rule="evenodd" clip-rule="evenodd" d="M47.2 14.2308H20.8V7.61538C20.8 3.97692 23.77 1 27.4 1H40.6C44.23 1 47.2 3.97692 47.2 7.61538V14.2308Z" stroke="black" stroke-width="2" stroke-linecap="round" stroke-linejoin="round"/>
<path d="M20.8 7.61536H1V87H67V7.61536H47.2" stroke="black" stroke-width="2" stroke-linecap="round" stroke-linejoin="round"/>
<path d="M34 27.4615C26.74 27.4615 20.8 33.4154 20.8 40.6923C20.8 47.9692 26.74 53.9231 34 53.9231C41.26 53.9231 47.2 47.9692 47.2 40.6923" stroke="black" stroke-width="2" stroke-linecap="round" stroke-linejoin="round"/>
<path fill-rule="evenodd" clip-rule="evenodd" d="M37.3 24.1539V37.3846H50.5C50.5 30.1077 44.56 24.1539 37.3 24.1539Z" stroke="black" stroke-width="2" stroke-linecap="round" stroke-linejoin="round"/>
<path d="M14.2 63.8462H34" stroke="black" stroke-width="2" stroke-linecap="round" stroke-linejoin="round"/>
<path d="M14.2 73.7692H20.8" stroke="black" stroke-width="2" stroke-linecap="round" stroke-linejoin="round"/>
</svg>
